# xmcd
#
# Track frame offsets:
#	150
#	14287
#	28682
#	47895
#
# Disc length: 869 seconds
#
# Revision: 0
# Processed by: cddbd v1.5.2PL0 Copyright (c) Steve Scherf et al.
# Submitted via: audiograbber 1.83.01
#
DISCID=2a036304
DTITLE=Laurent Daniels - I'm at Peace
DYEAR=1999
DGENRE=Pop
TTITLE0=I'm at Peace (Neu Radio Edit)
TTITLE1=I'm at Peace (Soft Radio Edit)
TTITLE2=I'm at Peace (Album Cut)
TTITLE3=My Secret Place (Radio Edit)
EXTD=
EXTT0=
EXTT1=
EXTT2=
EXTT3=
PLAYORDER=
